<svg xmlns="http://www.w3.org/2000/svg" viewBox="0 0 517.515625 166.8" width="517.515625" height="166.8">
  <defs>
    <!-- Tokyo Mono gradient (dark mode) -->
    <linearGradient id="tokyoGrad" x1="0%" y1="0%" x2="100%" y2="0%">
      <stop offset="0%" stop-color="#7aa2f7" />
      <stop offset="50%" stop-color="#bb9af7" />
      <stop offset="100%" stop-color="#7dcfff" />
    </linearGradient>

    <!-- Tokyo Mono Day gradient (light mode) -->
    <linearGradient id="tokyoGradDay" x1="0%" y1="0%" x2="100%" y2="0%">
      <stop offset="0%" stop-color="#2e7de9" />
      <stop offset="50%" stop-color="#9854f1" />
      <stop offset="100%" stop-color="#007197" />
    </linearGradient>

    <!-- Divider gradient (fades in from edges) -->
    <linearGradient id="dividerGrad" x1="0%" y1="0%" x2="100%" y2="0%">
      <stop offset="0%" stop-color="#7aa2f7" stop-opacity="0" />
      <stop offset="20%" stop-color="#7aa2f7" stop-opacity="1" />
      <stop offset="50%" stop-color="#bb9af7" stop-opacity="1" />
      <stop offset="80%" stop-color="#7dcfff" stop-opacity="1" />
      <stop offset="100%" stop-color="#7dcfff" stop-opacity="0" />
    </linearGradient>
  </defs>

  <style>
    .banner-path { fill: url(#tokyoGrad); }
    .subtitle { fill: #666666; }
    @media (prefers-color-scheme: light) {
      .banner-path { fill: url(#tokyoGradDay); }
      .subtitle { fill: #616161; }
    }
  </style>

  <path class="banner-path" d="M52.21 70.13L43.43 70.13L43.43 68.50L52.21 68.50L52.21 70.13ZM73.31 70.13L64.52 70.13L64.52 68.50L73.31 68.50L73.31 70.13ZM83.86 70.13L75.07 70.13L75.07 68.50L83.86 68.50L83.86 70.13ZM126.04 70.13L117.25 70.13L117.25 68.50L126.04 68.50L126.04 70.13ZM136.59 70.13L127.80 70.13L127.80 68.50L136.59 68.50L136.59 70.13ZM147.14 70.13L138.35 70.13L138.35 68.50L147.14 68.50L147.14 70.13ZM168.23 70.13L159.44 70.13L159.44 68.50L168.23 68.50L168.23 70.13ZM189.32 70.13L180.54 70.13L180.54 68.50L189.32 68.50L189.32 70.13ZM199.87 70.13L191.08 70.13L191.08 68.50L199.87 68.50L199.87 70.13ZM220.96 70.13L212.18 70.13L212.18 68.50L220.96 68.50L220.96 70.13ZM231.51 70.13L222.72 70.13L222.72 68.50L231.51 68.50L231.51 70.13ZM242.06 70.13L233.27 70.13L233.27 68.50L242.06 68.50L242.06 70.13ZM273.70 70.13L264.91 70.13L264.91 68.50L273.70 68.50L273.70 70.13ZM284.25 70.13L275.46 70.13L275.46 68.50L284.25 68.50L284.25 70.13ZM294.79 70.13L286.00 70.13L286.00 68.50L294.79 68.50L294.79 70.13ZM326.43 70.13L317.64 70.13L317.64 68.50L326.43 68.50L326.43 70.13ZM347.53 70.13L338.74 70.13L338.74 68.50L347.53 68.50L347.53 70.13ZM358.07 70.13L349.29 70.13L349.29 68.50L358.07 68.50L358.07 70.13ZM400.26 70.13L391.47 70.13L391.47 68.50L400.26 68.50L400.26 70.13ZM410.81 70.13L402.02 70.13L402.02 68.50L410.81 68.50L410.81 70.13ZM431.90 70.13L423.11 70.13L423.11 68.50L431.90 68.50L431.90 70.13ZM453.00 70.13L444.21 70.13L444.21 68.50L453.00 68.50L453.00 70.13ZM463.54 70.13L454.75 70.13L454.75 68.50L463.54 68.50L463.54 70.13ZM474.09 70.13L465.30 70.13L465.30 68.50L474.09 68.50L474.09 70.13Z" />
  <path class="banner-path" d="M38.19 91.02L36.36 91.02L36.36 73.09L38.19 73.09L38.19 91.02ZM59.21 81.44L57.52 81.44L57.35 75.82L59.39 75.82L59.21 81.44ZM73.31 89.93L64.52 89.93L64.52 88.30L73.31 88.30L73.31 89.93ZM94.28 89.97L92.42 89.97L85.35 74.15L87.21 74.15L94.28 89.97ZM108.69 89.97L106.83 89.97L113.90 74.15L115.76 74.15L108.69 89.97ZM136.59 89.93L127.80 89.93L127.80 88.30L136.59 88.30L136.59 89.93ZM157.56 89.97L155.70 89.97L148.63 74.15L150.49 74.15L157.56 89.97ZM175.23 81.44L173.54 81.44L173.36 75.82L175.40 75.82L175.23 81.44ZM189.32 89.93L180.54 89.93L180.54 88.30L189.32 88.30L189.32 89.93ZM199.87 89.93L191.08 89.93L191.08 88.30L199.87 88.30L199.87 89.93ZM203.62 89.97L201.75 89.97L208.82 74.15L210.68 74.15L203.62 89.97ZM231.51 89.93L222.72 89.93L222.72 88.30L231.51 88.30L231.51 89.93ZM242.06 89.93L233.27 89.93L233.27 88.30L242.06 88.30L242.06 89.93ZM249.13 91.02L247.30 91.02L247.30 73.09L249.13 73.09L249.13 91.02ZM256.35 89.97L254.49 89.97L261.55 74.15L263.42 74.15L256.35 89.97ZM284.25 89.93L275.46 89.93L275.46 88.30L284.25 88.30L284.25 89.93ZM305.22 89.97L303.35 89.97L296.29 74.15L298.15 74.15L305.22 89.97ZM312.41 91.02L310.58 91.02L310.58 73.09L312.41 73.09L312.41 91.02ZM333.43 81.44L331.74 81.44L331.57 75.82L333.61 75.82L333.43 81.44ZM347.53 89.93L338.74 89.93L338.74 88.30L347.53 88.30L347.53 89.93ZM368.50 89.97L366.63 89.97L359.57 74.15L361.43 74.15L368.50 89.97ZM382.91 89.97L381.05 89.97L388.12 74.15L389.98 74.15L382.91 89.97ZM410.81 89.93L402.02 89.93L402.02 88.30L410.81 88.30L410.81 89.93ZM418.95 78.91L417.14 78.91L414.63 73.99L416.78 73.99L418.95 78.91ZM435.65 89.97L433.78 89.97L440.85 74.15L442.71 74.15L435.65 89.97ZM463.54 89.93L454.75 89.93L454.75 88.30L463.54 88.30L463.54 89.93ZM474.09 89.93L465.30 89.93L465.30 88.30L474.09 88.30L474.09 89.93ZM481.16 91.02L479.33 91.02L479.33 73.09L481.16 73.09L481.16 91.02Z" />
  <path class="banner-path" d="M38.19 110.82L36.36 110.82L36.36 92.89L38.19 92.89L38.19 110.82ZM59.28 110.82L57.45 110.82L57.45 92.89L59.28 92.89L59.28 110.82ZM73.31 109.73L64.52 109.73L64.52 108.10L73.31 108.10L73.31 109.73ZM76.38 109.86L75.96 109.86L75.96 108.28L76.21 108.28Q78.29 108.28 79.42 106.58Q80.55 104.88 80.55 101.81L80.55 101.81Q80.55 98.78 79.42 97.11Q78.29 95.44 76.21 95.44L76.21 95.44L75.96 95.44L75.96 93.86L76.38 93.86Q79.25 93.86 80.82 95.94Q82.40 98.02 82.40 101.81L82.40 101.81Q82.40 105.65 80.82 107.75Q79.25 109.86 76.38 109.86L76.38 109.86ZM101.47 110.82L99.64 110.82L99.64 92.89L101.47 92.89L101.47 110.82ZM136.59 109.73L127.80 109.73L127.80 108.10L136.59 108.10L136.59 109.73ZM147.14 109.73L138.35 109.73L138.35 108.10L147.14 108.10L147.14 109.73ZM150.88 109.77L149.02 109.77L156.08 93.95L157.95 93.95L150.88 109.77ZM175.30 110.82L173.47 110.82L173.47 92.89L175.30 92.89L175.30 110.82ZM210.29 109.77L208.43 109.77L201.37 93.95L203.23 93.95L210.29 109.77ZM220.96 109.73L212.18 109.73L212.18 108.10L220.96 108.10L220.96 109.73ZM231.51 109.73L222.72 109.73L222.72 108.10L231.51 108.10L231.51 109.73ZM252.48 109.77L250.62 109.77L243.55 93.95L245.42 93.95L252.48 109.77ZM272.80 109.86L272.38 109.86Q269.52 109.86 267.95 107.75Q266.37 105.65 266.37 101.81L266.37 101.81Q266.37 98.02 267.95 95.94Q269.52 93.86 272.38 93.86L272.38 93.86L272.80 93.86L272.80 95.44L272.56 95.44Q270.47 95.44 269.34 97.11Q268.21 98.78 268.21 101.81L268.21 101.81Q268.21 104.88 269.34 106.58Q270.47 108.28 272.56 108.28L272.56 108.28L272.80 108.28L272.80 109.86ZM284.25 109.73L275.46 109.73L275.46 108.10L284.25 108.10L284.25 109.73ZM287.32 109.86L286.90 109.86L286.90 108.28L287.15 108.28Q289.23 108.28 290.36 106.58Q291.49 104.88 291.49 101.81L291.49 101.81Q291.49 98.78 290.36 97.11Q289.23 95.44 287.15 95.44L287.15 95.44L286.90 95.44L286.90 93.86L287.32 93.86Q290.19 93.86 291.76 95.94Q293.33 98.02 293.33 101.81L293.33 101.81Q293.33 105.65 291.76 107.75Q290.19 109.86 287.32 109.86L287.32 109.86ZM312.41 110.82L310.58 110.82L310.58 92.89L312.41 92.89L312.41 110.82ZM333.50 110.82L331.67 110.82L331.67 92.89L333.50 92.89L333.50 110.82ZM354.59 110.82L352.77 110.82L352.77 92.89L354.59 92.89L354.59 110.82ZM375.69 110.82L373.86 110.82L373.86 92.89L375.69 92.89L375.69 110.82ZM399.37 109.86L398.94 109.86Q396.09 109.86 394.51 107.75Q392.93 105.65 392.93 101.81L392.93 101.81Q392.93 98.02 394.51 95.94Q396.09 93.86 398.94 93.86L398.94 93.86L399.37 93.86L399.37 95.44L399.12 95.44Q397.04 95.44 395.91 97.11Q394.78 98.78 394.78 101.81L394.78 101.81Q394.78 104.88 395.91 106.58Q397.04 108.28 399.12 108.28L399.12 108.28L399.37 108.28L399.37 109.86ZM410.81 109.73L402.02 109.73L402.02 108.10L410.81 108.10L410.81 109.73ZM417.88 110.82L416.05 110.82L416.05 92.89L417.88 92.89L417.88 110.82ZM442.33 109.77L440.46 109.77L433.40 93.95L435.26 93.95L442.33 109.77ZM453.00 109.73L444.21 109.73L444.21 108.10L453.00 108.10L453.00 109.73ZM463.54 109.73L454.75 109.73L454.75 108.10L463.54 108.10L463.54 109.73ZM484.51 109.77L482.65 109.77L475.58 93.95L477.45 93.95L484.51 109.77Z" />
  <path class="banner-path" d="M38.19 130.62L36.36 130.62L36.36 112.69L38.19 112.69L38.19 130.62ZM58.37 128.07L58.37 128.07Q57.83 128.07 57.45 127.69Q57.07 127.31 57.07 126.77L57.07 126.77Q57.07 126.23 57.45 125.85Q57.83 125.47 58.37 125.47L58.37 125.47Q58.91 125.47 59.29 125.85Q59.67 126.23 59.67 126.77L59.67 126.77Q59.67 127.31 59.29 127.69Q58.91 128.07 58.37 128.07ZM73.31 129.53L64.52 129.53L64.52 127.90L73.31 127.90L73.31 129.53ZM83.86 129.53L75.07 129.53L75.07 127.90L83.86 127.90L83.86 129.53ZM87.60 129.57L85.74 129.57L92.80 113.75L94.67 113.75L87.60 129.57ZM115.37 129.57L113.51 129.57L106.44 113.75L108.31 113.75L115.37 129.57ZM126.04 129.53L117.25 129.53L117.25 127.90L126.04 127.90L126.04 129.53ZM136.59 129.53L127.80 129.53L127.80 127.90L136.59 127.90L136.59 129.53ZM147.14 129.53L138.35 129.53L138.35 127.90L147.14 127.90L147.14 129.53ZM154.20 130.62L152.38 130.62L152.38 112.69L154.20 112.69L154.20 130.62ZM168.23 129.53L159.44 129.53L159.44 127.90L168.23 127.90L168.23 129.53ZM175.30 130.62L173.47 130.62L173.47 112.69L175.30 112.69L175.30 130.62ZM206.94 130.62L205.11 130.62L205.11 112.69L206.94 112.69L206.94 130.62ZM220.96 129.53L212.18 129.53L212.18 127.90L220.96 127.90L220.96 129.53ZM231.51 129.53L222.72 129.53L222.72 127.90L231.51 127.90L231.51 129.53ZM242.06 129.53L233.27 129.53L233.27 127.90L242.06 127.90L242.06 129.53ZM245.80 129.57L243.94 129.57L251.01 113.75L252.87 113.75L245.80 129.57ZM263.03 129.57L261.17 129.57L254.10 113.75L255.96 113.75L263.03 129.57ZM273.70 129.53L264.91 129.53L264.91 127.90L273.70 127.90L273.70 129.53ZM284.25 129.53L275.46 129.53L275.46 127.90L284.25 127.90L284.25 129.53ZM294.79 129.53L286.00 129.53L286.00 127.90L294.79 127.90L294.79 129.53ZM298.54 129.57L296.67 129.57L303.74 113.75L305.60 113.75L298.54 129.57ZM312.41 130.62L310.58 130.62L310.58 112.69L312.41 112.69L312.41 130.62ZM326.43 129.53L317.64 129.53L317.64 127.90L326.43 127.90L326.43 129.53ZM333.50 130.62L331.67 130.62L331.67 112.69L333.50 112.69L333.50 130.62ZM354.59 130.62L352.77 130.62L352.77 112.69L354.59 112.69L354.59 130.62ZM368.62 129.53L359.83 129.53L359.83 127.90L368.62 127.90L368.62 129.53ZM375.69 130.62L373.86 130.62L373.86 112.69L375.69 112.69L375.69 130.62ZM389.59 129.57L387.73 129.57L380.66 113.75L382.53 113.75L389.59 129.57ZM400.26 129.53L391.47 129.53L391.47 127.90L400.26 127.90L400.26 129.53ZM410.81 129.53L402.02 129.53L402.02 127.90L410.81 127.90L410.81 129.53ZM417.00 131.73L415.31 131.73L416.01 125.67L418.05 125.67L417.00 131.73ZM431.90 129.53L423.11 129.53L423.11 127.90L431.90 127.90L431.90 129.53ZM438.97 130.62L437.14 130.62L437.14 112.69L438.97 112.69L438.97 130.62ZM453.00 129.53L444.21 129.53L444.21 127.90L453.00 127.90L453.00 129.53ZM463.54 129.53L454.75 129.53L454.75 127.90L463.54 127.90L463.54 129.53ZM474.09 129.53L465.30 129.53L465.30 127.90L474.09 127.90L474.09 129.53ZM477.83 129.57L475.97 129.57L483.04 113.75L484.90 113.75L477.83 129.57Z" />
  <path class="banner-path" d="M38.19 150.42L36.36 150.42L36.36 132.49L38.19 132.49L38.19 150.42ZM52.21 149.33L43.43 149.33L43.43 147.70L52.21 147.70L52.21 149.33ZM59.28 150.42L57.45 150.42L57.45 132.49L59.28 132.49L59.28 150.42Z" />
  
  
</svg>
